<svg width="27" height="114" viewBox="0 0 27 114" fill="none" xmlns="http://www.w3.org/2000/svg">
<g id="dissertation">
<path d="M19.5 113V13C19.5 9.41762 22.398 6.51212 25.9776 6.50004C25.725 3.69677 23.369 1.5 20.5 1.5H12.75H11.5C5.97715 1.5 1.5 5.97715 1.5 11.5V113L10.5 90.6736L19.5 113Z" fill="#F0B682"/>
<path d="M26 7V7C26 3.96243 23.5376 1.5 20.5 1.5H12.75H11.5C5.97715 1.5 1.5 5.97715 1.5 11.5V113L10.5 90.6736L19.5 113V13C19.5 9.41015 22.4101 6.5 26 6.5V6.5" stroke="#DC6A05" stroke-width="2"/>
</g>
</svg>
