<svg id="linkedin" width="51" height="50" viewBox="0 0 51 50" fill="none" xmlns="http://www.w3.org/2000/svg">
    <g id="icon">
        <path d="M25.1971 50H25.0872C11.3326 50 0.142151 38.8095 0.142151 25.055V24.945C0.142151 11.1905 11.3326 0 25.0872 0H25.1971C38.9517 0 50.1421 11.1905 50.1421 24.945V25.055C50.1421 38.8095 38.9517 50 25.1971 50ZM25.0872 1.69245C12.2652 1.69245 1.8346 12.123 1.8346 24.945V25.055C1.8346 37.877 12.2652 48.3076 25.0872 48.3076H25.1971C38.0191 48.3076 48.4497 37.877 48.4497 25.055V24.945C48.4497 12.123 38.0191 1.69245 25.1971 1.69245H25.0872Z" fill="#6E94F5"/>
        <path d="M12.5089 16.9025C11.8726 16.3118 11.5561 15.5807 11.5561 14.7108C11.5561 13.8408 11.8743 13.0775 12.5089 12.4852C13.1453 11.8945 13.9644 11.5983 14.968 11.5983C15.9717 11.5983 16.7587 11.8945 17.3933 12.4852C18.0297 13.0758 18.3462 13.8188 18.3462 14.7108C18.3462 15.6027 18.028 16.3118 17.3933 16.9025C16.757 17.4931 15.9497 17.7893 14.968 17.7893C13.9864 17.7893 13.1453 17.4931 12.5089 16.9025ZM17.8114 20.2908V38.3999H12.0892V20.2908H17.8114Z" fill="#6E94F5"/>
        <path d="M36.8598 22.0796C38.1072 23.4336 38.73 25.2919 38.73 27.658V38.08H33.2956V28.3925C33.2956 27.1993 32.9859 26.2719 32.3681 25.6118C31.7504 24.9517 30.9177 24.62 29.8751 24.62C28.8326 24.62 27.9999 24.9501 27.3821 25.6118C26.7644 26.2719 26.4547 27.1993 26.4547 28.3925V38.08H20.9881V20.24H26.4547V22.606C27.0081 21.8173 27.7545 21.1945 28.6921 20.7358C29.6297 20.2772 30.6841 20.0487 31.857 20.0487C33.9455 20.0487 35.6142 20.7257 36.8598 22.0796Z" fill="#6E94F5"/>
    </g>
</svg>
