<svg width="59" height="85" viewBox="0 0 59 85" fill="none" xmlns="http://www.w3.org/2000/svg">
<g id="paper">
<path d="M0.5 0.75V84.25H58V0.75H0.5Z" fill="#FAECD0"/>
<path d="M6.5 27.75L10 16.25M10 16.25L13.5 4.75H17L20 16.25M10 16.25H20M55 14.25L52 6.75L48.6667 14.25L45.6667 6.75L42.3333 14.25L39.3333 6.75L36 14.25L33 6.75L30 14.25L28 9.75M55 20.25L52 27.75L49 20.25L45.6667 27.75L42.6667 20.25L39.3333 27.75L36.3333 20.25L33 27.75L30 20.25L28 24.75M5 40.75L8.33333 33.25L11.3333 40.75L14.6667 33.25L17.6667 40.75L21 33.25L24 40.75L27 33.25L30 40.75L33.3333 33.25L36.3333 40.75L39.6667 33.25L42.6667 40.75L46 33.25L49 40.75L52 33.25L55 40.75M5.33333 45.75L8.33333 53.25L11.6667 45.75L14.6667 53.25L18 45.75L21 53.25L24 45.75L27 53.25L30.3333 45.75L33.3333 53.25L36.6667 45.75L39.6667 53.25L43 45.75L46 53.25L49 45.75L52 53.25L55 45.75M5 66.25L8.33333 58.75L11.3333 66.25L14.6667 58.75L17.6667 66.25L21 58.75L24 66.25L27 58.75L30 66.25L33.3333 58.75L36.3333 66.25L39.6667 58.75L42.6667 66.25L46 58.75L49 66.25L52 58.75L55 66.25M5.33333 71.25L8.33333 78.75L11.6667 71.25L14.6667 78.75L18 71.25L21 78.75L24 71.25L27 78.75L30.3333 71.25L33.3333 78.75L36.6667 71.25L39.6667 78.75L43 71.25L46 78.75L49 71.25L52 78.75L55 71.25M23 27.75L20 16.25M8.5 27.75H5M24.5 27.75H21M0.5 84.25V0.75H58V84.25H0.5Z" stroke="#DC6A05"/>
</g>
</svg>
