<svg width="72" height="51" viewBox="0 0 72 51" fill="none" xmlns="http://www.w3.org/2000/svg">
<g id="presentation">
<path id="Vector 2" d="M1.5 35.75V6.25C1.5 3.48858 3.73858 1.25 6.5 1.25H57C59.7614 1.25 62 3.48858 62 6.25V35.75C62 38.5114 59.7614 40.75 57 40.75H6.5C3.73858 40.75 1.5 38.5114 1.5 35.75Z" fill="#F0B682" stroke="#DC6A05" stroke-width="2"/>
<g id="Vector 3">
<path d="M10 44.75V15.25C10 12.4886 12.2386 10.25 15 10.25H65.5C68.2614 10.25 70.5 12.4886 70.5 15.25V44.75C70.5 47.5114 68.2614 49.75 65.5 49.75H15C12.2386 49.75 10 47.5114 10 44.75Z" fill="#FAECD0"/>
<path d="M42.5 36.75H65M70.5 15.25V44.75C70.5 47.5114 68.2614 49.75 65.5 49.75H15C12.2386 49.75 10 47.5114 10 44.75V15.25C10 12.4886 12.2386 10.25 15 10.25H65.5C68.2614 10.25 70.5 12.4886 70.5 15.25Z" stroke="#DC6A05" stroke-width="2"/>
</g>
<rect id="Rectangle 2" x="16" y="18.75" width="23" height="22" fill="#DC6A05"/>
<path id="paper" d="M65 20.75L62.4444 25.75L59.8889 20.75L57.0494 25.75L54.4938 20.75L51.6543 25.75L49.0988 20.75L46.2593 25.75L43.7037 20.75L42 23.75" stroke="#DC6A05"/>
</g>
</svg>
